<svg id="Camada_1" data-name="Camada 1" xmlns="http://www.w3.org/2000/svg" viewBox="0 0 486.01 186.28"><title>eduardosotero</title><path d="M129,146.87H75v-9H66v-9H57v-36h9v-9h9v-9h36v9h9v9h9Zm-18-36v-18h-9v9H75v-9H66v27h9v-9Zm-9-18v-9H75v9Zm9,36v-9H75v9Z" transform="translate(-57 -56.86)"/><path d="M201,146.87H147v-9h-9v-9h-9v-36h9v-9h9v-9h18v-9h9v-9h18v9h9Zm-54-27v-27h-9v27Zm36,9v-63h-9v18H147v9h27v27H147v9Z" transform="translate(-57 -56.86)"/><path d="M273,137.87h-9v9H219v-9h-9v-9h-9v-45h9v-9h18v9h18v-9h18v9h9Zm-54-18v-36h-9v36Zm27,9v-9H219v9Zm9-9v-36h-9v36Z" transform="translate(-57 -56.86)"/><path d="M345,146.87H291v-9h-9v-9h-9v-18h9v-9h9v-9h-9v-9h9v-9h45v9h9Zm-54-27v-9h-9v9Zm27-27v-9H291v9Zm9,36v-36h-9v9H291v9h27v9H291v9Z" transform="translate(-57 -56.86)"/><path d="M399,101.86H381v45H354v-9h-9v-45h9v-9h9v-9h27v9h9Zm-36,27v-36h-9v36Zm18-36v-9H363v9Z" transform="translate(-57 -56.86)"/><path d="M471,146.87H417v-9h-9v-9h-9v-36h9v-9h9v-9h18v-9h9v-9h18v9h9Zm-54-27v-27h-9v27Zm36,9v-63h-9v18H417v9h27v27H417v9Z" transform="translate(-57 -56.86)"/><path d="M543,128.86h-9v9h-9v9H489v-9h-9v-9h-9v-36h9v-9h9v-9h36v9h9v9h9Zm-54-9v-27h-9v27Zm27-27v-9H489v9Zm0,36v-9H489v9Zm9-9v-27h-9v27Z" transform="translate(-57 -56.86)"/><path d="M174,225.14h-9v9h-9v9H111v-9h-9v-18h9v-9h-9v-18h9v-9h9v-9h45v9h9v18h-9v9h9Zm-54-27v-9h-9v9Zm27,27v-9H111v9Zm9-36v-9H120v9Zm-9,18v-9H120v9Zm9,9v-9h-9v9Z" transform="translate(-57 -56.86)"/><path d="M246,225.14h-9v9h-9v9H192v-9h-9v-9h-9v-36h9v-9h9v-9h36v9h9v9h9Zm-54-9v-27h-9v27Zm27-27v-9H192v9Zm0,36v-9H192v9Zm9-9v-27h-9v27Z" transform="translate(-57 -56.86)"/><path d="M300,243.14H273v-9h-9v-9h-9v-27h-9v-18h9v-18h9v-9h18v9h9v18h9v18h-9v18h9Zm-18-54v-9h-9v-18h-9v18h-9v9h9v27h9v-27Zm0,36v-9h-9v9Z" transform="translate(-57 -56.86)"/><path d="M372,243.14H318v-9h-9v-9h-9v-36h9v-9h9v-9h36v9h9v9h9Zm-18-36v-18h-9v9H318v-9h-9v27h9v-9Zm-9-18v-9H318v9Zm9,36v-9H318v9Z" transform="translate(-57 -56.86)"/><path d="M426,198.14H408v45H381v-9h-9v-45h9v-9h9v-9h27v9h9Zm-36,27v-36h-9v36Zm18-36v-9H390v9Z" transform="translate(-57 -56.86)"/><path d="M498,225.14h-9v9h-9v9H444v-9h-9v-9h-9v-36h9v-9h9v-9h36v9h9v9h9Zm-54-9v-27h-9v27Zm27-27v-9H444v9Zm0,36v-9H444v9Zm9-9v-27h-9v27Z" transform="translate(-57 -56.86)"/></svg>